# xmcd
#
# Track frame offsets: 
#        150
#        15299
#        34233
#        47674
#        57115
#        72959
#        85021
#        99702
#        114474
#        126960
#        135627
#        154615
#        179214
#
# Disc length: 2550 seconds
#
# Revision: 0
# Processed by: cddbd v1.5.2PL0 Copyright (c) Steve Scherf et al.
# Submitted via: ExactAudioCopy v0.99pb4
#
DISCID=ab09f40d
DTITLE=Kitty, Daisy and Lewis - Kitty, Daisy and Lewis
DYEAR=2008
DGENRE=Retro Rock'n Roll
TTITLE0=Going Up The Country
TTITLE1=Buggin´ Blues
TTITLE2=Polly Put The Kettle On
TTITLE3=Honolulu Rock-A Roll-A
TTITLE4=I Got My Mojo Working
TTITLE5=Mean Son Of A Gun
TTITLE6=Hillibilly Music
TTITLE7=Mohair Sam
TTITLE8=Ooo Wee
TTITLE9=Swinging Hawaii
TTITLE10=(Baby) Hold Me Tight
TTITLE11=Say You´ll Be Mine
TTITLE12=OK Ride (Bonus Track)
EXTD=
EXTT0=
EXTT1=
EXTT2=
EXTT3=
EXTT4=
EXTT5=
EXTT6=
EXTT7=
EXTT8=
EXTT9=
EXTT10=
EXTT11=
EXTT12=
PLAYORDER=
